<?xml version="1.0" encoding="utf-8"?>
<!-- Generator: Adobe Illustrator 16.0.0, SVG Export Plug-In . SVG Version: 6.00 Build 0)  -->
<!DOCTYPE svg PUBLIC "-//W3C//DTD SVG 1.1 Tiny//EN" "http://www.w3.org/Graphics/SVG/1.1/DTD/svg11-tiny.dtd">
<svg version="1.1" baseProfile="tiny" id="Layer_1" xmlns="http://www.w3.org/2000/svg" xmlns:xlink="http://www.w3.org/1999/xlink"
	 x="0px" y="0px" width="141.73px" height="47.199px" viewBox="0 0 141.73 47.199" xml:space="preserve">
<path fill="#BE1E2D" stroke="#BE1E2D" stroke-miterlimit="10" d="M52.565,23.6c0,1.333-1.08,2.412-2.412,2.412H35.31
	c-1.332,0-2.412-1.079-2.412-2.412l0,0c0-1.332,1.08-2.412,2.412-2.412h14.843C51.485,21.188,52.565,22.268,52.565,23.6L52.565,23.6
	z"/>
<path fill="#BE1E2D" d="M42.731,39.121c-3.112,1.114-6.374,1.67-9.784,1.67c-5.492,0-9.709-1.416-12.653-4.25
	c-2.944-2.832-4.416-7.022-4.416-12.568c0-2.688,0.406-5.118,1.219-7.292c0.813-2.174,1.973-4.019,3.479-5.533
	c1.506-1.515,3.331-2.683,5.472-3.505s4.54-1.232,7.196-1.232c1.804,0,3.479,0.133,5.026,0.398c1.546,0.266,3.033,0.672,4.46,1.22
	v4.493c-1.408-0.667-2.865-1.177-4.371-1.528c-1.507-0.351-3.152-0.526-4.937-0.526c-1.824,0-3.475,0.295-4.951,0.886
	c-1.477,0.59-2.731,1.446-3.762,2.567c-1.031,1.122-1.824,2.491-2.379,4.108S21.5,21.49,21.5,23.561
	c0,4.348,1.021,7.626,3.063,9.835c2.042,2.207,5.035,3.312,8.98,3.312c1.666,0,3.261-0.167,4.788-0.501
	c1.526-0.334,2.993-0.8,4.401-1.398V39.121z"/>
<path fill="#1C75BC" d="M68.028,31.29c0,1.593-0.325,2.987-0.976,4.186s-1.558,2.195-2.722,2.991
	c-1.164,0.797-2.563,1.392-4.198,1.784c-1.635,0.395-3.437,0.591-5.405,0.591c-0.891,0-1.775-0.034-2.657-0.103
	s-1.729-0.154-2.542-0.257s-1.579-0.222-2.298-0.359c-0.719-0.137-1.37-0.282-1.952-0.437v-4.417
	c1.284,0.48,2.726,0.857,4.327,1.131s3.419,0.41,5.456,0.41c1.473,0,2.726-0.115,3.762-0.346c1.035-0.232,1.883-0.574,2.542-1.027
	s1.139-1.006,1.438-1.656c0.3-0.65,0.45-1.396,0.45-2.234c0-0.907-0.253-1.682-0.758-2.323c-0.505-0.643-1.168-1.215-1.99-1.721
	c-0.821-0.504-1.759-0.967-2.812-1.387c-1.053-0.419-2.127-0.852-3.222-1.297c-1.096-0.444-2.17-0.928-3.223-1.45
	c-1.053-0.522-1.99-1.138-2.813-1.849c-0.821-0.71-1.485-1.545-1.989-2.504c-0.505-0.958-0.758-2.096-0.758-3.415
	c0-1.147,0.24-2.277,0.719-3.39c0.479-1.112,1.223-2.101,2.234-2.965c1.01-0.864,2.306-1.562,3.89-2.093
	c1.584-0.53,3.471-0.796,5.662-0.796c0.564,0,1.177,0.025,1.836,0.077c0.658,0.052,1.326,0.125,2.003,0.218
	c0.676,0.094,1.344,0.202,2.003,0.321c0.658,0.12,1.271,0.248,1.835,0.385v4.108c-1.317-0.376-2.636-0.663-3.954-0.86
	s-2.593-0.295-3.825-0.295c-2.619,0-4.545,0.437-5.777,1.31c-1.233,0.873-1.849,2.045-1.849,3.518c0,0.908,0.252,1.686,0.758,2.336
	c0.504,0.651,1.168,1.232,1.989,1.746s1.759,0.98,2.812,1.399c1.053,0.42,2.127,0.852,3.223,1.297
	c1.095,0.445,2.17,0.933,3.223,1.463c1.053,0.531,1.989,1.16,2.812,1.887c0.821,0.729,1.484,1.58,1.989,2.555
	C67.775,28.799,68.028,29.955,68.028,31.29z"/>
<path fill="#1C75BC" d="M97.479,28.696c0,1.85-0.261,3.523-0.783,5.021c-0.522,1.498-1.288,2.773-2.298,3.826
	s-2.247,1.865-3.71,2.438c-1.464,0.574-3.146,0.86-5.046,0.86c-2.089,0-3.86-0.273-5.314-0.821
	c-1.456-0.548-2.642-1.322-3.557-2.323c-0.916-1.002-1.584-2.205-2.003-3.608c-0.42-1.403-0.629-2.969-0.629-4.699V6.82h4.57v22.21
	c0,1.318,0.124,2.475,0.372,3.467c0.248,0.993,0.655,1.823,1.22,2.491c0.565,0.667,1.297,1.172,2.195,1.515
	c0.899,0.343,1.999,0.513,3.3,0.513c2.431,0,4.224-0.701,5.379-2.105c1.156-1.402,1.733-3.38,1.733-5.931V6.82h4.57V28.696z"/>
<path fill="#1C75BC" d="M125.852,31.29c0,1.593-0.324,2.987-0.975,4.186s-1.559,2.195-2.723,2.991
	c-1.164,0.797-2.563,1.392-4.197,1.784c-1.635,0.395-3.437,0.591-5.405,0.591c-0.89,0-1.775-0.034-2.657-0.103
	s-1.729-0.154-2.542-0.257c-0.813-0.103-1.579-0.222-2.298-0.359c-0.719-0.137-1.37-0.282-1.951-0.437v-4.417
	c1.283,0.48,2.726,0.857,4.326,1.131s3.419,0.41,5.456,0.41c1.472,0,2.726-0.115,3.762-0.346c1.035-0.232,1.883-0.574,2.542-1.027
	c0.658-0.453,1.139-1.006,1.438-1.656s0.449-1.396,0.449-2.234c0-0.907-0.252-1.682-0.758-2.323
	c-0.504-0.643-1.167-1.215-1.989-1.721c-0.821-0.504-1.759-0.967-2.812-1.387c-1.053-0.419-2.127-0.852-3.223-1.297
	c-1.096-0.444-2.169-0.928-3.222-1.45c-1.053-0.522-1.99-1.138-2.812-1.849c-0.822-0.71-1.485-1.545-1.99-2.504
	c-0.505-0.958-0.758-2.096-0.758-3.415c0-1.147,0.239-2.277,0.719-3.39c0.479-1.112,1.224-2.101,2.234-2.965
	c1.01-0.864,2.307-1.562,3.89-2.093c1.583-0.53,3.471-0.796,5.662-0.796c0.564,0,1.177,0.025,1.836,0.077
	c0.658,0.052,1.326,0.125,2.003,0.218c0.676,0.094,1.344,0.202,2.002,0.321s1.271,0.248,1.836,0.385v4.108
	c-1.318-0.376-2.637-0.663-3.955-0.86c-1.317-0.197-2.592-0.295-3.824-0.295c-2.619,0-4.545,0.437-5.777,1.31
	s-1.849,2.045-1.849,3.518c0,0.908,0.252,1.686,0.757,2.336c0.505,0.651,1.169,1.232,1.99,1.746s1.759,0.98,2.812,1.399
	c1.053,0.42,2.127,0.852,3.223,1.297c1.095,0.445,2.17,0.933,3.222,1.463c1.053,0.531,1.99,1.16,2.813,1.887
	c0.82,0.729,1.484,1.58,1.988,2.555C125.6,28.799,125.852,29.955,125.852,31.29z"/>
</svg>
